<svg width="1383" height="381" viewBox="0 0 1383 381" fill="none" xmlns="http://www.w3.org/2000/svg">
<path d="M1349.57 157.019L1340.01 145.989C1338.22 143.962 1335.6 143.37 1333.31 144.112L1340.88 126.987C1341.4 125.928 1341.92 124.868 1342.39 123.79C1348.66 109.598 1345.66 93.6311 1343.35 85.3382C1342.48 82.2756 1338.99 80.732 1336.1 82.1365C1328.43 85.9649 1314.59 94.5425 1308.32 108.734C1307.95 109.554 1307.61 110.33 1307.29 111.169L1299.38 129.071C1298.37 126.923 1296.17 125.381 1293.55 125.464L1278.96 125.821C1277.14 125.845 1275.58 127.059 1275.01 128.818L1266.59 155.928C1265.6 159.1 1268.44 162.111 1271.63 161.304L1287.37 157.429C1289 157.014 1290.36 156.02 1291.23 154.648L1320.09 167.398C1319.65 168.96 1319.84 170.64 1320.63 172.122L1328.36 186.365C1329.91 189.268 1334.05 189.345 1335.73 186.478L1350.11 161.997C1350.94 160.353 1350.78 158.376 1349.57 157.019ZM1321.84 124.917C1317.14 122.84 1314.98 117.348 1317.07 112.603C1319.15 107.901 1324.64 105.739 1329.39 107.835C1334.13 109.932 1336.25 115.405 1334.15 120.15C1332.08 124.852 1326.54 126.995 1321.84 124.917Z" fill="#6362E7"/>
<path d="M271.049 242.448C266.093 264.361 253.31 275.318 232.962 275.318H173.745C156.789 275.318 148.441 268.274 148.441 253.926C137.223 270.883 123.136 279.491 106.702 279.491C94.4409 279.491 84.7887 274.535 76.9626 264.622C69.3974 254.709 65.4844 241.926 65.4844 226.013C65.4844 197.318 73.8322 174.883 90.5278 158.187C105.658 143.057 124.18 135.492 146.615 135.492H235.571L206.354 242.187H271.049V242.448ZM170.615 168.622H136.18L125.223 216.361C124.702 219.492 124.18 222.1 124.18 224.448C124.18 236.448 133.05 242.187 150.789 242.187L170.615 168.622Z" fill="#6362E7"/>
<path d="M459.14 242.446C458.618 251.576 454.705 259.403 447.14 265.663C439.575 271.924 431.488 275.316 422.357 275.316H303.923C281.227 275.316 269.749 266.185 269.749 247.924C269.749 246.359 269.749 244.533 270.01 242.707C270.792 234.62 274.184 228.098 279.923 223.664C284.879 219.751 290.618 217.664 297.14 217.924C308.357 218.446 323.488 226.533 342.792 242.446C348.27 233.316 351.14 224.185 351.14 215.055C351.14 210.359 348.792 199.924 344.357 183.229L326.618 204.359H295.314L336.792 153.751C334.966 149.577 333.662 145.925 332.879 143.316C331.575 138.359 330.792 132.62 330.792 126.098L369.14 72.3594C386.357 76.2724 394.966 86.4463 394.966 103.403C394.966 113.316 392.618 122.446 388.183 130.794C392.096 144.098 396.01 157.664 399.923 170.968C404.618 188.185 406.966 202.272 406.966 212.707C406.966 224.446 403.314 234.62 396.27 242.968H459.14V242.446Z" fill="#6362E7"/>
<path d="M597.398 242.447C592.441 264.36 579.398 275.317 558.528 275.317H478.963C463.572 275.317 456.007 268.273 456.007 253.926C456.007 250.274 456.529 246.621 457.833 242.447L477.659 168.621H451.833L461.746 135.752C480.007 129.491 493.572 121.665 502.181 112.274C512.094 101.578 522.789 82.0129 534.268 53.5781H564.789L542.876 135.752H583.05C576.528 157.665 563.485 168.621 543.659 168.621H533.485L513.92 242.447H597.398Z" fill="#6362E7"/>
<path d="M780.006 242.445C780.006 252.098 776.093 260.185 768.007 266.706C760.963 272.446 753.659 275.315 745.833 275.315H686.093C670.18 275.315 662.354 266.706 662.354 249.489C662.354 245.054 663.137 240.359 664.441 235.402L682.18 168.619H649.05L631.833 227.576C628.963 237.489 622.702 242.445 613.05 242.445H596.615L616.963 168.619C610.441 166.793 605.224 162.359 601.311 155.837C597.398 149.315 595.311 141.489 595.311 132.88C595.311 117.228 600.789 104.967 612.007 96.3587C621.137 89.3153 632.354 85.6631 645.137 85.6631H670.441L657.398 135.75H743.485L715.05 242.445H780.006Z" fill="#6362E7"/>
<path d="M986.875 242.449C984.788 253.927 979.831 262.536 972.527 268.275C966.788 272.971 960.527 275.318 954.005 275.318H888.788C873.397 275.318 865.831 268.797 865.831 256.014C857.744 268.797 846.788 275.318 832.962 275.318H805.571C797.223 275.318 790.701 272.449 786.005 266.71C781.571 261.492 779.484 254.449 779.484 245.579C779.484 240.623 780.266 235.666 781.571 230.449L807.657 135.753H864.266L835.049 242.449H866.614L895.57 135.753H951.657L923.223 242.449H986.875Z" fill="#6362E7"/>
<path d="M1291.83 242.448C1288.7 264.361 1276.96 275.318 1256.35 275.318H1192.96C1188 275.318 1183.31 272.709 1179.13 267.231C1174.96 261.753 1172.87 255.753 1172.87 248.97C1172.87 246.883 1173.13 244.535 1173.39 242.709C1175.74 232.536 1179.13 217.927 1183.57 198.622L1130.87 256.796C1117.57 271.405 1106.09 278.449 1096.7 278.449C1082.61 278.449 1075.57 271.405 1075.57 257.579C1075.57 253.144 1076.35 248.188 1077.91 242.709L1090.44 198.622L1028.35 266.709C1023.13 272.709 1016.35 275.579 1008.52 275.579H976.698L1014 136.014H1070.35L1052.61 201.753L1100.35 150.101C1112.35 137.057 1125.65 130.536 1140.52 130.536C1152.78 130.536 1159.05 136.796 1159.05 149.318C1159.05 152.97 1158.52 156.883 1157.22 161.057L1146 202.014L1192.7 149.84C1203.91 137.057 1216.7 130.796 1230.52 130.796C1243.57 130.796 1250.09 138.101 1250.09 152.71C1250.09 157.666 1249.31 163.144 1247.48 169.144L1227.39 242.97L1324.57 125.016L1291.83 242.448Z" fill="#6362E7"/>
<circle cx="190.5" cy="190.5" r="187.5" stroke="#6362E7" stroke-width="6"/>
</svg>
